<svg width="20" height="20" viewBox="0 0 20 20" fill="none" xmlns="http://www.w3.org/2000/svg">
<path d="M18.125 15.625C18.125 15.7908 18.0592 15.9497 17.9419 16.0669C17.8247 16.1842 17.6658 16.25 17.5 16.25C17.3342 16.25 17.1753 16.1842 17.0581 16.0669C16.9409 15.9497 16.875 15.7908 16.875 15.625C16.8729 13.8023 16.1479 12.0548 14.8591 10.7659C13.5702 9.47706 11.8227 8.75207 10 8.75H6.875V11.875C6.8751 11.9987 6.8385 12.1196 6.76983 12.2225C6.70116 12.3254 6.60351 12.4055 6.48925 12.4529C6.37498 12.5002 6.24924 12.5126 6.12794 12.4885C6.00663 12.4643 5.89523 12.4047 5.80782 12.3172L2.05782 8.56719C1.99971 8.50915 1.95361 8.44022 1.92215 8.36434C1.8907 8.28847 1.87451 8.20714 1.87451 8.125C1.87451 8.04287 1.8907 7.96154 1.92215 7.88567C1.95361 7.80979 1.99971 7.74086 2.05782 7.68282L5.80782 3.93282C5.89523 3.84531 6.00663 3.7857 6.12794 3.76155C6.24924 3.73739 6.37498 3.74977 6.48925 3.79711C6.60351 3.84446 6.70116 3.92464 6.76983 4.02752C6.8385 4.13039 6.8751 4.25132 6.875 4.375V7.5H10C12.1542 7.50228 14.2195 8.35903 15.7427 9.88227C17.266 11.4055 18.1227 13.4708 18.125 15.625Z" fill="#4E46E5"/>
</svg>
