<svg width="14" height="14" viewBox="0 0 14 14" fill="none" xmlns="http://www.w3.org/2000/svg">
<path d="M12.7143 4.40178L5.71427 11.4018C5.65331 11.463 5.58086 11.5115 5.50109 11.5446C5.42132 11.5777 5.3358 11.5948 5.24943 11.5948C5.16306 11.5948 5.07754 11.5777 4.99777 11.5446C4.918 11.5115 4.84555 11.463 4.78459 11.4018L1.72209 8.33928C1.66104 8.27823 1.61262 8.20576 1.57958 8.12601C1.54654 8.04625 1.52954 7.96076 1.52954 7.87443C1.52954 7.78811 1.54654 7.70262 1.57958 7.62286C1.61262 7.5431 1.66104 7.47064 1.72209 7.40959C1.78313 7.34855 1.8556 7.30012 1.93536 7.26709C2.01512 7.23405 2.1006 7.21705 2.18693 7.21705C2.27326 7.21705 2.35874 7.23405 2.4385 7.26709C2.51826 7.30012 2.59073 7.34855 2.65177 7.40959L5.24998 10.0078L11.7857 3.47318C11.909 3.3499 12.0762 3.28064 12.2505 3.28064C12.4249 3.28064 12.5921 3.3499 12.7154 3.47318C12.8387 3.59647 12.9079 3.76368 12.9079 3.93803C12.9079 4.11238 12.8387 4.27959 12.7154 4.40287L12.7143 4.40178Z" fill="#4E46E5"/>
</svg>
