<svg width="20" height="20" viewBox="0 0 20 20" fill="none" xmlns="http://www.w3.org/2000/svg">
<path d="M12.5 2.51956V17.4758C12.5019 17.5877 12.4748 17.6982 12.4212 17.7966C12.3677 17.8949 12.2896 17.9776 12.1945 18.0367C12.0865 18.101 11.9616 18.1312 11.8362 18.1234C11.7108 18.1156 11.5906 18.0701 11.4914 17.993L6.36875 14.0086C6.33161 13.9793 6.30162 13.9419 6.28105 13.8992C6.26048 13.8566 6.24986 13.8099 6.25 13.7625V6.23753C6.25014 6.19 6.26112 6.14313 6.2821 6.10049C6.30309 6.05784 6.33352 6.02055 6.37109 5.99144L11.4937 2.00706C11.606 1.92007 11.7446 1.87391 11.8866 1.87618C12.0286 1.87845 12.1656 1.92902 12.275 2.01956C12.3469 2.08131 12.4043 2.1581 12.4432 2.24451C12.4821 2.33092 12.5015 2.42482 12.5 2.51956ZM4.6875 6.25003H2.5C2.16848 6.25003 1.85054 6.38173 1.61612 6.61615C1.3817 6.85057 1.25 7.16851 1.25 7.50003V12.5C1.25 12.8316 1.3817 13.1495 1.61612 13.3839C1.85054 13.6183 2.16848 13.75 2.5 13.75H4.6875C4.77038 13.75 4.84987 13.7171 4.90847 13.6585C4.96708 13.5999 5 13.5204 5 13.4375V6.56253C5 6.47965 4.96708 6.40016 4.90847 6.34156C4.84987 6.28295 4.77038 6.25003 4.6875 6.25003ZM14.5914 7.87815C14.5297 7.93239 14.4793 7.99826 14.443 8.072C14.4068 8.14574 14.3855 8.2259 14.3802 8.3079C14.375 8.38989 14.386 8.47211 14.4126 8.54986C14.4392 8.6276 14.4808 8.69934 14.5352 8.76097C14.8366 9.10334 15.0029 9.54386 15.0029 10C15.0029 10.4562 14.8366 10.8967 14.5352 11.2391C14.4794 11.3004 14.4363 11.3722 14.4085 11.4503C14.3807 11.5284 14.3688 11.6113 14.3733 11.6941C14.3779 11.7769 14.3989 11.8579 14.435 11.9325C14.4712 12.0071 14.5219 12.0737 14.5841 12.1286C14.6462 12.1834 14.7187 12.2253 14.7973 12.2519C14.8758 12.2784 14.9588 12.2891 15.0415 12.2832C15.1242 12.2773 15.2049 12.2551 15.279 12.2177C15.353 12.1804 15.4188 12.1287 15.4727 12.0657C15.9754 11.495 16.2527 10.7606 16.2527 10C16.2527 9.23951 15.9754 8.50509 15.4727 7.9344C15.4184 7.87257 15.3525 7.82206 15.2787 7.78575C15.2049 7.74945 15.1246 7.72807 15.0425 7.72284C14.9604 7.71762 14.8781 7.72865 14.8003 7.7553C14.7225 7.78195 14.6507 7.8237 14.5891 7.87815H14.5914ZM17.7859 5.83362C17.7322 5.76934 17.666 5.71654 17.5914 5.67835C17.5168 5.64015 17.4353 5.61735 17.3517 5.61131C17.2681 5.60526 17.1841 5.61609 17.1048 5.64314C17.0255 5.6702 16.9524 5.71293 16.8899 5.7688C16.8275 5.82467 16.7769 5.89253 16.7412 5.96835C16.7055 6.04417 16.6854 6.1264 16.6821 6.21014C16.6788 6.29389 16.6924 6.37744 16.722 6.45583C16.7517 6.53422 16.7968 6.60584 16.8547 6.66644C17.6748 7.58317 18.1281 8.77002 18.1281 10C18.1281 11.23 17.6748 12.4169 16.8547 13.3336C16.7968 13.3942 16.7517 13.4658 16.722 13.5442C16.6924 13.6226 16.6788 13.7062 16.6821 13.7899C16.6854 13.8737 16.7055 13.9559 16.7412 14.0317C16.7769 14.1075 16.8275 14.1754 16.8899 14.2313C16.9524 14.2871 17.0255 14.3299 17.1048 14.3569C17.1841 14.384 17.2681 14.3948 17.3517 14.3888C17.4353 14.3827 17.5168 14.3599 17.5914 14.3217C17.666 14.2835 17.7322 14.2307 17.7859 14.1664C18.8107 13.0206 19.3772 11.5373 19.3772 10C19.3772 8.46279 18.8107 6.97947 17.7859 5.83362Z" fill="#4E46E5"/>
</svg>
